# xmcd
#
# Track frame offsets:
#	150
#	15305
#	33160
#	51166
#	66621
#	80126
#	96782
#	115238
#	132193
#	148098
#	165053
#	183658
#
# Disc length: 2686 seconds
#
# Revision: 0
# Processed by: cddbd v1.5.1PL0 Copyright (c) Steve Scherf et al.
# Submitted via: audiograbber 1.82.01
#
DISCID=9f0a7c0c
DTITLE=LeAnn Rimes - This Woman
DYEAR=2005
DGENRE=
TTITLE0=Want To With You
TTITLE1=You Take Me Home
TTITLE2=Something's Gotta Give
TTITLE3=Won't Be Lonely Long
TTITLE4=Nothin' 'Bout Love Makes Sense
TTITLE5=Probably Wouldn't Be This Way
TTITLE6=The Weight Of Love
TTITLE7=With You
TTITLE8=I Got It Bad
TTITLE9=I Dare You
TTITLE10=When This Woman Loves A Man
TTITLE11=Some People
EXTD=
EXTT0=
EXTT1=
EXTT2=
EXTT3=
EXTT4=
EXTT5=
EXTT6=
EXTT7=
EXTT8=
EXTT9=
EXTT10=
EXTT11=
PLAYORDER=
